<svg width="24" height="24" viewBox="0 0 24 24" fill="none" xmlns="http://www.w3.org/2000/svg">
<path fill-rule="evenodd" clip-rule="evenodd" d="M20.3097 6.97252L12.084 16.7755L9.26891 17.9525L9.93911 14.9757L18.1649 5.17263L18.1619 5.17635L18.1662 5.17194C18.2026 5.13382 18.4661 4.85811 18.8303 4.70031C19.0201 4.61804 19.1949 4.58664 19.3629 4.60524C19.519 4.62253 19.7802 4.6943 20.1403 4.99646C20.5004 5.29861 20.6164 5.54333 20.6605 5.69405C20.708 5.85629 20.7075 6.03389 20.6594 6.23515C20.5672 6.6212 20.3415 6.92853 20.3103 6.97104L20.3067 6.97606L20.3097 6.97252ZM13.216 17.9157C13.1134 18.038 12.983 18.1339 12.8357 18.1955L7.02742 20.6238L8.41021 14.4821C8.44527 14.3263 8.51712 14.1812 8.61974 14.0589L16.9422 4.14056C16.9432 4.13946 18.8709 1.84263 21.1687 3.77079C23.4666 5.69894 21.5394 7.99623 21.5385 7.99733L13.216 17.9157ZM2.8 6.17101C2.35817 6.17101 2 6.52918 2 6.971C2 7.41283 2.35817 7.771 2.8 7.771H11.2C11.6418 7.771 12 7.41283 12 6.971C12 6.52918 11.6418 6.17101 11.2 6.17101H2.8ZM2 10.971C2 10.5292 2.35817 10.171 2.8 10.171H7.2C7.64183 10.171 8 10.5292 8 10.971C8 11.4128 7.64183 11.771 7.2 11.771H2.8C2.35817 11.771 2 11.4128 2 10.971ZM2.8 19.171C2.35817 19.171 2 19.5292 2 19.971C2 20.4128 2.35817 20.771 2.8 20.771H4.2C4.64183 20.771 5 20.4128 5 19.971C5 19.5292 4.64183 19.171 4.2 19.171H2.8Z" fill="#000"/>
</svg>
