<?xml version="1.0" encoding="iso-8859-1"?>
<!-- Uploaded to: SVG Repo, www.svgrepo.com, Generator: SVG Repo Mixer Tools -->
<svg height="800px" width="800px" version="1.1" id="Layer_1" xmlns="http://www.w3.org/2000/svg" xmlns:xlink="http://www.w3.org/1999/xlink" 
	 viewBox="0 0 512 512" xml:space="preserve">
<g transform="translate(1)">
	<polygon style="fill:#FFFFFF;" points="255,35.2 323.267,35.2 323.267,478.933 255,478.933 	"/>
	<path style="fill:#0096E6;" d="M331.8,487.467h-85.333v-460.8H331.8V487.467z M263.533,470.4h51.2V43.733h-51.2V470.4z"/>
	<path style="fill:#FFFFFF;" d="M255,60.8H15.213c-4.267,0-7.68,3.413-7.68,7.68V444.8c0,5.12,3.413,8.533,7.68,8.533H255V60.8
		L255,60.8z"/>
	<path style="fill:#0096E6;" d="M263.533,461.867H15.213C6.68,461.867-1,454.187-1,445.653V68.48c0-8.533,7.68-16.213,16.213-16.213
		h248.32V461.867z M15.213,69.333l0.853,376.32l230.4-0.853V69.333H15.213z"/>
	<path style="fill:#FFFFFF;" d="M399.213,60.8L459.8,94.933V419.2l-60.587,34.133h95.573c4.267,0,7.68-3.413,7.68-7.68V68.48
		c0-4.267-3.413-7.68-7.68-7.68H399.213L399.213,60.8z"/>
	<path style="fill:#0096E6;" d="M494.787,461.867h-128l84.48-47.787V100.053l-84.48-47.787h128c8.533,0,16.213,7.68,16.213,16.213
		V444.8C511,454.187,503.32,461.867,494.787,461.867z M431.64,444.8h63.147l-0.853-376.32H431.64l36.693,21.333V424.32L431.64,444.8
		z"/>
	<path style="fill:#D0E8F9;" d="M323.267,18.987V493.44c0,0.853,0.853,0.853,1.707,0.853L459.8,418.347V94.08L324.973,18.133
		C324.12,18.133,323.267,18.133,323.267,18.987L323.267,18.987z"/>
	<path style="fill:#0096E6;" d="M324.12,502.827c-1.707,0-3.413-0.853-5.12-1.707c-2.56-1.707-5.12-5.12-5.12-8.533v-473.6
		c0-3.413,1.707-6.827,5.12-8.533c2.56-1.707,6.827-1.707,9.387,0L468.333,88.96v334.507L329.24,501.973
		C327.533,502.827,325.827,502.827,324.12,502.827z M331.8,31.787V480.64l119.467-67.413V99.2L331.8,31.787z"/>
	<path style="fill:#D0E8F9;" d="M255,94.933H52.76c-5.973,0-11.093,5.12-11.093,11.093v301.227c0,6.827,5.12,11.947,11.093,11.947
		H255V94.933L255,94.933z"/>
	<g>
		<path style="fill:#0096E6;" d="M263.533,427.733H52.76c-10.24,0-19.627-9.387-19.627-19.627v-302.08
			c0-10.24,9.387-19.627,19.627-19.627h210.773V427.733z M52.76,103.467c-0.853,0-2.56,1.707-2.56,2.56v301.227
			c0,1.707,1.707,3.413,2.56,3.413h193.707v-307.2H52.76z"/>
		<path style="fill:#0096E6;" d="M476.867,385.067h-25.6c-5.12,0-8.533-3.413-8.533-8.533s3.413-8.533,8.533-8.533h25.6
			c5.12,0,8.533,3.413,8.533,8.533S481.987,385.067,476.867,385.067z M476.867,359.467h-25.6c-5.12,0-8.533-3.413-8.533-8.533
			s3.413-8.533,8.533-8.533h25.6c5.12,0,8.533,3.413,8.533,8.533S481.987,359.467,476.867,359.467z M476.867,171.733h-25.6
			c-5.12,0-8.533-3.413-8.533-8.533s3.413-8.533,8.533-8.533h25.6c5.12,0,8.533,3.413,8.533,8.533S481.987,171.733,476.867,171.733z
			 M476.867,146.133h-25.6c-5.12,0-8.533-3.413-8.533-8.533c0-5.12,3.413-8.533,8.533-8.533h25.6c5.12,0,8.533,3.413,8.533,8.533
			C485.4,142.72,481.987,146.133,476.867,146.133z"/>
	</g>
	<polygon style="fill:#FFFFFF;" points="24.6,453.333 92.867,453.333 92.867,487.467 24.6,487.467 	"/>
	<path style="fill:#0096E6;" d="M101.4,496H16.067v-51.2H101.4V496z M33.133,478.933h51.2v-17.067h-51.2V478.933z"/>
	<polygon style="fill:#FFFFFF;" points="417.133,453.333 485.4,453.333 485.4,487.467 417.133,487.467 	"/>
	<g>
		<path style="fill:#0096E6;" d="M493.933,496H408.6v-51.2h85.333V496z M425.667,478.933h51.2v-17.067h-51.2V478.933z"/>
		<path style="fill:#0096E6;" d="M297.667,59.947c0,5.12-3.413,8.533-8.533,8.533c-5.12,0-8.533-3.413-8.533-8.533
			s3.413-8.533,8.533-8.533C294.253,51.413,297.667,55.68,297.667,59.947"/>
		<path style="fill:#0096E6;" d="M297.667,111.147c0,5.12-3.413,8.533-8.533,8.533c-5.12,0-8.533-3.413-8.533-8.533
			s3.413-8.533,8.533-8.533C294.253,102.613,297.667,106.88,297.667,111.147"/>
		<path style="fill:#0096E6;" d="M297.667,401.28c0,5.12-3.413,8.533-8.533,8.533c-5.12,0-8.533-3.413-8.533-8.533
			c0-5.12,3.413-8.533,8.533-8.533C294.253,392.747,297.667,397.013,297.667,401.28"/>
		<path style="fill:#0096E6;" d="M297.667,350.08c0,5.12-3.413,8.533-8.533,8.533c-5.12,0-8.533-3.413-8.533-8.533
			c0-5.12,3.413-8.533,8.533-8.533C294.253,341.547,297.667,345.813,297.667,350.08"/>
		<path style="fill:#0096E6;" d="M297.667,162.347c0,5.12-3.413,8.533-8.533,8.533c-5.12,0-8.533-3.413-8.533-8.533
			c0-5.12,3.413-8.533,8.533-8.533C294.253,153.813,297.667,158.08,297.667,162.347"/>
		<path style="fill:#0096E6;" d="M297.667,452.48c0,5.12-3.413,8.533-8.533,8.533c-5.12,0-8.533-3.413-8.533-8.533
			s3.413-8.533,8.533-8.533C294.253,443.947,297.667,448.213,297.667,452.48"/>
		<path style="fill:#0096E6;" d="M348.867,350.08c-5.12,0-8.533-3.413-8.533-8.533c0-5.12,3.413-8.533,8.533-8.533
			c28.16,0,51.2-23.04,51.2-51.2v-51.2c0-28.16-23.04-51.2-51.2-51.2c-5.12,0-8.533-3.413-8.533-8.533
			c0-5.12,3.413-8.533,8.533-8.533c37.547,0,68.267,30.72,68.267,68.267v51.2C417.133,319.36,386.413,350.08,348.867,350.08z
			 M348.867,315.947c-5.12,0-8.533-3.413-8.533-8.533s3.413-8.533,8.533-8.533c9.387,0,17.067-7.68,17.067-17.067v-51.2
			c0-9.387-7.68-17.067-17.067-17.067c-5.12,0-8.533-3.413-8.533-8.533c0-5.12,3.413-8.533,8.533-8.533
			c18.773,0,34.133,15.36,34.133,34.133v51.2C383,300.587,367.64,315.947,348.867,315.947z"/>
		<path style="fill:#0096E6;" d="M118.467,103.467c0,5.12-3.413,8.533-8.533,8.533s-8.533-3.413-8.533-8.533
			s3.413-8.533,8.533-8.533S118.467,98.347,118.467,103.467"/>
		<path style="fill:#0096E6;" d="M169.667,103.467c0,5.12-3.413,8.533-8.533,8.533c-5.12,0-8.533-3.413-8.533-8.533
			s3.413-8.533,8.533-8.533C166.253,94.933,169.667,98.347,169.667,103.467"/>
		<path style="fill:#0096E6;" d="M67.267,103.467c0,5.12-3.413,8.533-8.533,8.533s-8.533-3.413-8.533-8.533s3.413-8.533,8.533-8.533
			S67.267,98.347,67.267,103.467"/>
		<path style="fill:#0096E6;" d="M220.867,103.467c0,5.12-3.413,8.533-8.533,8.533c-5.12,0-8.533-3.413-8.533-8.533
			s3.413-8.533,8.533-8.533C217.453,94.933,220.867,98.347,220.867,103.467"/>
		<path style="fill:#0096E6;" d="M118.467,154.667c0,5.12-3.413,8.533-8.533,8.533s-8.533-3.413-8.533-8.533
			c0-5.12,3.413-8.533,8.533-8.533S118.467,149.547,118.467,154.667"/>
		<path style="fill:#0096E6;" d="M144.067,129.067c0,5.12-3.413,8.533-8.533,8.533S127,134.187,127,129.067
			c0-5.12,3.413-8.533,8.533-8.533S144.067,123.947,144.067,129.067"/>
		<path style="fill:#0096E6;" d="M144.067,180.267c0,5.12-3.413,8.533-8.533,8.533S127,185.387,127,180.267
			c0-5.12,3.413-8.533,8.533-8.533S144.067,175.147,144.067,180.267"/>
		<path style="fill:#0096E6;" d="M169.667,154.667c0,5.12-3.413,8.533-8.533,8.533c-5.12,0-8.533-3.413-8.533-8.533
			c0-5.12,3.413-8.533,8.533-8.533C166.253,146.133,169.667,149.547,169.667,154.667"/>
		<path style="fill:#0096E6;" d="M67.267,154.667c0,5.12-3.413,8.533-8.533,8.533s-8.533-3.413-8.533-8.533
			c0-5.12,3.413-8.533,8.533-8.533S67.267,149.547,67.267,154.667"/>
		<path style="fill:#0096E6;" d="M92.867,129.067c0,5.12-3.413,8.533-8.533,8.533s-8.533-3.413-8.533-8.533
			c0-5.12,3.413-8.533,8.533-8.533S92.867,123.947,92.867,129.067"/>
		<path style="fill:#0096E6;" d="M92.867,180.267c0,5.12-3.413,8.533-8.533,8.533s-8.533-3.413-8.533-8.533
			c0-5.12,3.413-8.533,8.533-8.533S92.867,175.147,92.867,180.267"/>
		<path style="fill:#0096E6;" d="M195.267,129.067c0,5.12-3.413,8.533-8.533,8.533c-5.12,0-8.533-3.413-8.533-8.533
			c0-5.12,3.413-8.533,8.533-8.533C191.853,120.533,195.267,123.947,195.267,129.067"/>
		<path style="fill:#0096E6;" d="M195.267,180.267c0,5.12-3.413,8.533-8.533,8.533c-5.12,0-8.533-3.413-8.533-8.533
			c0-5.12,3.413-8.533,8.533-8.533C191.853,171.733,195.267,175.147,195.267,180.267"/>
		<path style="fill:#0096E6;" d="M220.867,154.667c0,5.12-3.413,8.533-8.533,8.533c-5.12,0-8.533-3.413-8.533-8.533
			c0-5.12,3.413-8.533,8.533-8.533C217.453,146.133,220.867,149.547,220.867,154.667"/>
		<path style="fill:#0096E6;" d="M118.467,205.867c0,5.12-3.413,8.533-8.533,8.533s-8.533-3.413-8.533-8.533
			c0-5.12,3.413-8.533,8.533-8.533S118.467,200.747,118.467,205.867"/>
		<path style="fill:#0096E6;" d="M169.667,205.867c0,5.12-3.413,8.533-8.533,8.533c-5.12,0-8.533-3.413-8.533-8.533
			c0-5.12,3.413-8.533,8.533-8.533C166.253,197.333,169.667,200.747,169.667,205.867"/>
		<path style="fill:#0096E6;" d="M67.267,205.867c0,5.12-3.413,8.533-8.533,8.533s-8.533-3.413-8.533-8.533
			c0-5.12,3.413-8.533,8.533-8.533S67.267,200.747,67.267,205.867"/>
		<path style="fill:#0096E6;" d="M220.867,205.867c0,5.12-3.413,8.533-8.533,8.533c-5.12,0-8.533-3.413-8.533-8.533
			c0-5.12,3.413-8.533,8.533-8.533C217.453,197.333,220.867,200.747,220.867,205.867"/>
		<path style="fill:#0096E6;" d="M246.467,129.067c0,5.12-3.413,8.533-8.533,8.533c-5.12,0-8.533-3.413-8.533-8.533
			c0-5.12,3.413-8.533,8.533-8.533C243.053,120.533,246.467,123.947,246.467,129.067"/>
		<path style="fill:#0096E6;" d="M246.467,180.267c0,5.12-3.413,8.533-8.533,8.533c-5.12,0-8.533-3.413-8.533-8.533
			c0-5.12,3.413-8.533,8.533-8.533C243.053,171.733,246.467,175.147,246.467,180.267"/>
		<path style="fill:#0096E6;" d="M118.467,257.067c0,5.12-3.413,8.533-8.533,8.533s-8.533-3.413-8.533-8.533
			s3.413-8.533,8.533-8.533S118.467,251.947,118.467,257.067"/>
		<path style="fill:#0096E6;" d="M144.067,231.467c0,5.12-3.413,8.533-8.533,8.533S127,236.587,127,231.467
			c0-5.12,3.413-8.533,8.533-8.533S144.067,226.347,144.067,231.467"/>
		<path style="fill:#0096E6;" d="M144.067,282.667c0,5.12-3.413,8.533-8.533,8.533S127,287.787,127,282.667s3.413-8.533,8.533-8.533
			S144.067,277.547,144.067,282.667"/>
		<path style="fill:#0096E6;" d="M169.667,257.067c0,5.12-3.413,8.533-8.533,8.533c-5.12,0-8.533-3.413-8.533-8.533
			s3.413-8.533,8.533-8.533C166.253,248.533,169.667,251.947,169.667,257.067"/>
		<path style="fill:#0096E6;" d="M67.267,257.067c0,5.12-3.413,8.533-8.533,8.533s-8.533-3.413-8.533-8.533s3.413-8.533,8.533-8.533
			S67.267,251.947,67.267,257.067"/>
		<path style="fill:#0096E6;" d="M92.867,231.467c0,5.12-3.413,8.533-8.533,8.533s-8.533-3.413-8.533-8.533
			c0-5.12,3.413-8.533,8.533-8.533S92.867,226.347,92.867,231.467"/>
		<path style="fill:#0096E6;" d="M92.867,282.667c0,5.12-3.413,8.533-8.533,8.533s-8.533-3.413-8.533-8.533s3.413-8.533,8.533-8.533
			S92.867,277.547,92.867,282.667"/>
		<path style="fill:#0096E6;" d="M195.267,231.467c0,5.12-3.413,8.533-8.533,8.533c-5.12,0-8.533-3.413-8.533-8.533
			c0-5.12,3.413-8.533,8.533-8.533C191.853,222.933,195.267,226.347,195.267,231.467"/>
		<path style="fill:#0096E6;" d="M195.267,282.667c0,5.12-3.413,8.533-8.533,8.533c-5.12,0-8.533-3.413-8.533-8.533
			s3.413-8.533,8.533-8.533C191.853,274.133,195.267,277.547,195.267,282.667"/>
		<path style="fill:#0096E6;" d="M220.867,257.067c0,5.12-3.413,8.533-8.533,8.533c-5.12,0-8.533-3.413-8.533-8.533
			s3.413-8.533,8.533-8.533C217.453,248.533,220.867,251.947,220.867,257.067"/>
		<path style="fill:#0096E6;" d="M118.467,308.267c0,5.12-3.413,8.533-8.533,8.533s-8.533-3.413-8.533-8.533
			s3.413-8.533,8.533-8.533S118.467,303.147,118.467,308.267"/>
		<path style="fill:#0096E6;" d="M169.667,308.267c0,5.12-3.413,8.533-8.533,8.533c-5.12,0-8.533-3.413-8.533-8.533
			s3.413-8.533,8.533-8.533C166.253,299.733,169.667,303.147,169.667,308.267"/>
		<path style="fill:#0096E6;" d="M67.267,308.267c0,5.12-3.413,8.533-8.533,8.533s-8.533-3.413-8.533-8.533s3.413-8.533,8.533-8.533
			S67.267,303.147,67.267,308.267"/>
		<path style="fill:#0096E6;" d="M220.867,308.267c0,5.12-3.413,8.533-8.533,8.533c-5.12,0-8.533-3.413-8.533-8.533
			s3.413-8.533,8.533-8.533C217.453,299.733,220.867,303.147,220.867,308.267"/>
		<path style="fill:#0096E6;" d="M246.467,231.467c0,5.12-3.413,8.533-8.533,8.533c-5.12,0-8.533-3.413-8.533-8.533
			c0-5.12,3.413-8.533,8.533-8.533C243.053,222.933,246.467,226.347,246.467,231.467"/>
		<path style="fill:#0096E6;" d="M246.467,282.667c0,5.12-3.413,8.533-8.533,8.533c-5.12,0-8.533-3.413-8.533-8.533
			s3.413-8.533,8.533-8.533C243.053,274.133,246.467,277.547,246.467,282.667"/>
		<path style="fill:#0096E6;" d="M118.467,359.467c0,5.12-3.413,8.533-8.533,8.533s-8.533-3.413-8.533-8.533
			c0-5.12,3.413-8.533,8.533-8.533S118.467,354.347,118.467,359.467"/>
		<path style="fill:#0096E6;" d="M144.067,333.867c0,5.12-3.413,8.533-8.533,8.533S127,338.987,127,333.867
			c0-5.12,3.413-8.533,8.533-8.533S144.067,328.747,144.067,333.867"/>
		<path style="fill:#0096E6;" d="M144.067,385.067c0,5.12-3.413,8.533-8.533,8.533S127,390.187,127,385.067
			c0-5.12,3.413-8.533,8.533-8.533S144.067,379.947,144.067,385.067"/>
		<path style="fill:#0096E6;" d="M169.667,359.467c0,5.12-3.413,8.533-8.533,8.533c-5.12,0-8.533-3.413-8.533-8.533
			c0-5.12,3.413-8.533,8.533-8.533C166.253,350.933,169.667,354.347,169.667,359.467"/>
		<path style="fill:#0096E6;" d="M67.267,359.467c0,5.12-3.413,8.533-8.533,8.533s-8.533-3.413-8.533-8.533
			c0-5.12,3.413-8.533,8.533-8.533S67.267,354.347,67.267,359.467"/>
		<path style="fill:#0096E6;" d="M92.867,333.867c0,5.12-3.413,8.533-8.533,8.533s-8.533-3.413-8.533-8.533
			c0-5.12,3.413-8.533,8.533-8.533S92.867,328.747,92.867,333.867"/>
		<path style="fill:#0096E6;" d="M92.867,385.067c0,5.12-3.413,8.533-8.533,8.533s-8.533-3.413-8.533-8.533
			c0-5.12,3.413-8.533,8.533-8.533S92.867,379.947,92.867,385.067"/>
		<path style="fill:#0096E6;" d="M195.267,333.867c0,5.12-3.413,8.533-8.533,8.533c-5.12,0-8.533-3.413-8.533-8.533
			c0-5.12,3.413-8.533,8.533-8.533C191.853,325.333,195.267,328.747,195.267,333.867"/>
		<path style="fill:#0096E6;" d="M195.267,385.067c0,5.12-3.413,8.533-8.533,8.533c-5.12,0-8.533-3.413-8.533-8.533
			c0-5.12,3.413-8.533,8.533-8.533C191.853,376.533,195.267,379.947,195.267,385.067"/>
		<path style="fill:#0096E6;" d="M220.867,359.467c0,5.12-3.413,8.533-8.533,8.533c-5.12,0-8.533-3.413-8.533-8.533
			c0-5.12,3.413-8.533,8.533-8.533C217.453,350.933,220.867,354.347,220.867,359.467"/>
		<path style="fill:#0096E6;" d="M118.467,410.667c0,5.12-3.413,8.533-8.533,8.533s-8.533-3.413-8.533-8.533
			s3.413-8.533,8.533-8.533S118.467,405.547,118.467,410.667"/>
		<path style="fill:#0096E6;" d="M169.667,410.667c0,5.12-3.413,8.533-8.533,8.533c-5.12,0-8.533-3.413-8.533-8.533
			s3.413-8.533,8.533-8.533C166.253,402.133,169.667,405.547,169.667,410.667"/>
		<path style="fill:#0096E6;" d="M67.267,410.667c0,5.12-3.413,8.533-8.533,8.533s-8.533-3.413-8.533-8.533s3.413-8.533,8.533-8.533
			S67.267,405.547,67.267,410.667"/>
		<path style="fill:#0096E6;" d="M220.867,410.667c0,5.12-3.413,8.533-8.533,8.533c-5.12,0-8.533-3.413-8.533-8.533
			s3.413-8.533,8.533-8.533C217.453,402.133,220.867,405.547,220.867,410.667"/>
		<path style="fill:#0096E6;" d="M246.467,333.867c0,5.12-3.413,8.533-8.533,8.533c-5.12,0-8.533-3.413-8.533-8.533
			c0-5.12,3.413-8.533,8.533-8.533C243.053,325.333,246.467,328.747,246.467,333.867"/>
		<path style="fill:#0096E6;" d="M246.467,385.067c0,5.12-3.413,8.533-8.533,8.533c-5.12,0-8.533-3.413-8.533-8.533
			c0-5.12,3.413-8.533,8.533-8.533C243.053,376.533,246.467,379.947,246.467,385.067"/>
	</g>
</g>
</svg>