<?xml version="1.0" encoding="iso-8859-1"?>
<!-- Uploaded to: SVG Repo, www.svgrepo.com, Generator: SVG Repo Mixer Tools -->
<svg height="800px" width="800px" version="1.1" id="Layer_1" xmlns="http://www.w3.org/2000/svg" xmlns:xlink="http://www.w3.org/1999/xlink" 
	 viewBox="0 0 512 512" xml:space="preserve">
<g transform="translate(1 1)">
	<polygon style="fill:#FFFFFF;" points="24.6,434.2 92.867,434.2 92.867,468.333 24.6,468.333 	"/>
	<path style="fill:#0096E6;" d="M101.4,476.867H16.067v-51.2H101.4V476.867z M33.133,459.8h51.2v-17.067h-51.2V459.8z"/>
	<polygon style="fill:#FFFFFF;" points="417.133,434.2 485.4,434.2 485.4,468.333 417.133,468.333 	"/>
	<path style="fill:#0096E6;" d="M493.933,476.867H408.6v-51.2h85.333V476.867z M425.667,459.8h51.2v-17.067h-51.2V459.8z"/>
	<polygon style="fill:#D0E8F9;" points="7.533,41.667 502.467,41.667 502.467,434.2 7.533,434.2 	"/>
	<path style="fill:#0096E6;" d="M511,442.733H-1v-409.6h512V442.733z M16.067,425.667h477.867V50.2H16.067V425.667z"/>
	<polygon style="fill:#FFFFFF;" points="434.2,109.933 502.467,109.933 502.467,144.067 434.2,144.067 	"/>
	<path style="fill:#0096E6;" d="M511,152.6h-85.333v-51.2H511V152.6z M442.733,135.533h51.2v-17.067h-51.2V135.533z"/>
	<polygon style="fill:#FFFFFF;" points="434.2,331.8 502.467,331.8 502.467,365.933 434.2,365.933 	"/>
	<path style="fill:#0096E6;" d="M511,374.467h-85.333v-51.2H511V374.467z M442.733,357.4h51.2v-17.067h-51.2V357.4z"/>
	<path style="fill:#FFFFFF;" d="M434.2,365.933V331.8h34.133V144.067H434.2v-34.133h34.133v-25.6c0-5.12-4.267-8.533-8.533-8.533
		H50.2c-4.267,0-8.533,4.267-8.533,8.533v307.2c0,5.12,4.267,8.533,8.533,8.533h409.6c5.12,0,8.533-4.267,8.533-8.533v-25.6H434.2
		L434.2,365.933z"/>
	<path style="fill:#0096E6;" d="M459.8,408.6H50.2c-9.387,0-17.067-7.68-17.067-17.067v-307.2c0-9.387,7.68-17.067,17.067-17.067
		h409.6c9.387,0,17.067,7.68,17.067,17.067v34.133h-34.133v17.067h34.133v204.8h-34.133V357.4h34.133v34.133
		C476.867,400.92,469.187,408.6,459.8,408.6z M50.2,84.333v307.2h409.6v-17.067h-34.133v-51.2H459.8V152.6h-34.133v-51.2H459.8
		V84.333H50.2z"/>
	<path style="fill:#D0E8F9;" d="M220.867,237.933c0,28.16-23.04,51.2-51.2,51.2s-51.2-23.04-51.2-51.2s23.04-51.2,51.2-51.2
		S220.867,209.773,220.867,237.933L220.867,237.933z"/>
	<g>
		<path style="fill:#0096E6;" d="M169.667,297.667c-33.28,0-59.733-26.453-59.733-59.733s26.453-59.733,59.733-59.733
			s59.733,26.453,59.733,59.733S202.947,297.667,169.667,297.667z M169.667,195.267c-23.893,0-42.667,18.773-42.667,42.667
			s18.773,42.667,42.667,42.667s42.667-18.773,42.667-42.667S193.56,195.267,169.667,195.267z"/>
		<path style="fill:#0096E6;" d="M169.667,340.333c-5.12,0-8.533-3.413-8.533-8.533v-42.667c0-5.12,3.413-8.533,8.533-8.533
			c5.12,0,8.533,3.413,8.533,8.533V331.8C178.2,336.92,174.787,340.333,169.667,340.333z M400.067,331.8
			c-5.12,0-8.533-3.413-8.533-8.533v-8.533c0-5.12,3.413-8.533,8.533-8.533s8.533,3.413,8.533,8.533v8.533
			C408.6,328.387,405.187,331.8,400.067,331.8z M357.4,331.8c-5.12,0-8.533-3.413-8.533-8.533v-8.533
			c0-5.12,3.413-8.533,8.533-8.533s8.533,3.413,8.533,8.533v8.533C365.933,328.387,362.52,331.8,357.4,331.8z M314.733,331.8
			c-5.12,0-8.533-3.413-8.533-8.533v-8.533c0-5.12,3.413-8.533,8.533-8.533c5.12,0,8.533,3.413,8.533,8.533v8.533
			C323.267,328.387,319.853,331.8,314.733,331.8z M236.227,313.027c-2.56,0-4.267-0.853-5.973-2.56L200.387,280.6
			c-3.413-3.413-3.413-8.533,0-11.947s8.533-3.413,11.947,0L242.2,298.52c3.413,3.413,3.413,8.533,0,11.947
			C240.493,312.173,237.933,313.027,236.227,313.027z M103.107,313.027c-2.56,0-4.267-0.853-5.973-2.56
			c-3.413-3.413-3.413-8.533,0-11.947L127,268.653c3.413-3.413,8.533-3.413,11.947,0s3.413,8.533,0,11.947l-29.867,29.867
			C107.373,312.173,105.667,313.027,103.107,313.027z M400.067,297.667c-5.12,0-8.533-3.413-8.533-8.533V280.6
			c0-5.12,3.413-8.533,8.533-8.533s8.533,3.413,8.533,8.533v8.533C408.6,294.253,405.187,297.667,400.067,297.667z M357.4,297.667
			c-5.12,0-8.533-3.413-8.533-8.533V280.6c0-5.12,3.413-8.533,8.533-8.533s8.533,3.413,8.533,8.533v8.533
			C365.933,294.253,362.52,297.667,357.4,297.667z M314.733,297.667c-5.12,0-8.533-3.413-8.533-8.533V280.6
			c0-5.12,3.413-8.533,8.533-8.533c5.12,0,8.533,3.413,8.533,8.533v8.533C323.267,294.253,319.853,297.667,314.733,297.667z
			 M400.067,263.533c-5.12,0-8.533-3.413-8.533-8.533v-8.533c0-5.12,3.413-8.533,8.533-8.533s8.533,3.413,8.533,8.533V255
			C408.6,260.12,405.187,263.533,400.067,263.533z M357.4,263.533c-5.12,0-8.533-3.413-8.533-8.533v-8.533
			c0-5.12,3.413-8.533,8.533-8.533s8.533,3.413,8.533,8.533V255C365.933,260.12,362.52,263.533,357.4,263.533z M314.733,263.533
			c-5.12,0-8.533-3.413-8.533-8.533v-8.533c0-5.12,3.413-8.533,8.533-8.533c5.12,0,8.533,3.413,8.533,8.533V255
			C323.267,260.12,319.853,263.533,314.733,263.533z M263.533,246.467h-42.667c-5.12,0-8.533-3.413-8.533-8.533
			c0-5.12,3.413-8.533,8.533-8.533h42.667c5.12,0,8.533,3.413,8.533,8.533C272.067,243.053,268.653,246.467,263.533,246.467z
			 M118.467,246.467H75.8c-5.12,0-8.533-3.413-8.533-8.533c0-5.12,3.413-8.533,8.533-8.533h42.667c5.12,0,8.533,3.413,8.533,8.533
			C127,243.053,123.587,246.467,118.467,246.467z M205.507,210.627c-2.56,0-4.267-0.853-5.973-2.56
			c-3.413-3.413-3.413-8.533,0-11.947l29.867-29.867c3.413-3.413,8.533-3.413,11.947,0s3.413,8.533,0,11.947l-29.013,29.867
			C210.627,209.773,208.067,210.627,205.507,210.627z M133.827,210.627c-2.56,0-4.267-0.853-5.973-2.56L97.987,178.2
			c-3.413-3.413-3.413-8.533,0-11.947c3.413-3.413,8.533-3.413,11.947,0L139.8,196.12c3.413,3.413,3.413,8.533,0,11.947
			C138.093,209.773,135.533,210.627,133.827,210.627z M169.667,195.267c-5.12,0-8.533-3.413-8.533-8.533v-42.667
			c0-5.12,3.413-8.533,8.533-8.533c5.12,0,8.533,3.413,8.533,8.533v42.667C178.2,191.853,174.787,195.267,169.667,195.267z"/>
	</g>
	<polygon style="fill:#D0E8F9;" points="306.2,169.667 408.6,169.667 408.6,203.8 306.2,203.8 	"/>
	<g>
		<path style="fill:#0096E6;" d="M417.133,212.333H297.667v-51.2h119.467V212.333z M314.733,195.267h85.333V178.2h-85.333V195.267z"
			/>
		<path style="fill:#0096E6;" d="M178.2,237.933c0,5.12-3.413,8.533-8.533,8.533c-5.12,0-8.533-3.413-8.533-8.533
			c0-5.12,3.413-8.533,8.533-8.533C174.787,229.4,178.2,232.813,178.2,237.933"/>
	</g>
</g>
</svg>